<?xml version="1.0" encoding="utf-8"?>
<!-- Generator: Adobe Illustrator 24.2.1, SVG Export Plug-In . SVG Version: 6.00 Build 0)  -->
<svg version="1.2" baseProfile="tiny" id="Calque_1"
	 xmlns="http://www.w3.org/2000/svg" xmlns:xlink="http://www.w3.org/1999/xlink" x="0px" y="0px" viewBox="0 0 1757 288"
	 overflow="visible" xml:space="preserve">
<g>
	<polygon points="123.2,199.49 51.22,18.62 11.4,18.62 121.51,280.39 231.97,18.62 192.84,18.62 	"/>
	<polygon points="381.55,159.2 496.85,159.2 496.85,127 381.55,127 381.55,50.83 510.7,50.83 510.7,18.62 347.96,18.62 
		347.96,268.97 515.55,268.97 515.55,236.77 381.55,236.77 	"/>
	<polygon points="673.09,18.62 639.51,18.62 639.51,268.97 800.17,268.97 800.17,236.77 673.09,236.77 	"/>
	<polygon points="954.26,18.62 920.67,18.62 920.67,268.97 1081.33,268.97 1081.33,236.77 954.26,236.77 	"/>
	<path d="M1399.72,54.11c-11.89-11.89-25.51-21.24-40.86-28.05c-15.36-6.81-31.8-10.21-49.34-10.21c-17.78,0-34.34,3.41-49.69,10.21
		c-15.35,6.81-28.91,16.16-40.69,28.05c-11.77,11.89-20.95,25.51-27.53,40.86c-6.58,15.36-9.87,31.68-9.87,49
		c0,18.24,3.29,35.09,9.87,50.55c6.58,15.47,15.76,28.97,27.53,40.51c11.77,11.55,25.33,20.55,40.69,27.01
		c15.35,6.47,31.91,9.7,49.69,9.7c17.54,0,33.99-3.29,49.34-9.87c15.35-6.58,28.97-15.7,40.86-27.35
		c11.89-11.65,21.18-25.22,27.87-40.69c6.69-15.46,10.04-32.08,10.04-49.86c0-17.31-3.35-33.64-10.04-49
		C1420.9,79.62,1411.61,66.01,1399.72,54.11z M1395.74,181.19c-4.85,11.43-11.43,21.53-19.74,30.3
		c-8.31,8.78-18.12,15.64-29.43,20.6c-11.31,4.97-23.43,7.44-36.36,7.44c-13.16,0-25.4-2.48-36.7-7.44
		c-11.31-4.96-21.24-11.83-29.78-20.6c-8.54-8.77-15.23-18.87-20.08-30.3s-7.27-23.72-7.27-36.88c0-13.16,2.31-25.56,6.92-37.22
		c4.61-11.65,11.19-21.87,19.74-30.64c8.54-8.77,18.47-15.69,29.78-20.78c11.31-5.07,23.55-7.62,36.7-7.62
		c12.93,0,25.04,2.48,36.36,7.44c11.31,4.97,21.24,11.83,29.78,20.6c8.54,8.78,15.23,18.99,20.08,30.64
		c4.85,11.66,7.27,24.07,7.27,37.22C1403.01,157.36,1400.59,169.77,1395.74,181.19z"/>
	<polygon points="1742,268.97 1632.93,8.24 1630.85,8.24 1521.43,268.97 1554.33,268.97 1630.44,82.73 1703.57,268.97 	"/>
</g>
</svg>
